<?xml version="1.0" encoding="UTF-8"?>
<svg version="1.1" xmlns="http://www.w3.org/2000/svg" width="144" height="144">
<path d="M0 0 C47.52 0 95.04 0 144 0 C144 47.52 144 95.04 144 144 C96.48 144 48.96 144 0 144 C0 96.48 0 48.96 0 0 Z " fill="#183346" transform="translate(0,0)"/>
<path d="M0 0 C2.58340384 -0.02703562 5.16652308 -0.04685611 7.75 -0.0625 C8.47960938 -0.07087891 9.20921875 -0.07925781 9.9609375 -0.08789062 C13.55734353 -0.10423793 16.48454408 0.12113602 20 1 C20 3.97 20 6.94 20 10 C17.69 10 15.38 10 13 10 C13 9.34 13 8.68 13 8 C11.02 8 9.04 8 7 8 C7 9.65 7 11.3 7 13 C10.96 13 14.92 13 19 13 C20.5171199 16.03423981 20.18439257 19.17504794 20.1875 22.5 C20.19974609 23.18964844 20.21199219 23.87929687 20.22460938 24.58984375 C20.22988695 26.39477494 20.12184458 28.19917842 20 30 C18 32 18 32 16.02880859 32.22705078 C15.24328613 32.21657715 14.45776367 32.20610352 13.6484375 32.1953125 C12.79765625 32.18886719 11.946875 32.18242188 11.0703125 32.17578125 C10.18085937 32.15902344 9.29140625 32.14226562 8.375 32.125 C7.02921875 32.11146484 7.02921875 32.11146484 5.65625 32.09765625 C3.43723414 32.0740497 1.21874923 32.0411231 -1 32 C-2.20272819 29.59454362 -2.10071472 28.05003047 -2.0625 25.375 C-2.05347656 24.55773437 -2.04445313 23.74046875 -2.03515625 22.8984375 C-2.02355469 22.27195312 -2.01195313 21.64546875 -2 21 C0.64 21 3.28 21 6 21 C6 22.32 6 23.64 6 25 C7.98 25 9.96 25 12 25 C12 23.02 12 21.04 12 19 C10.80375 19.04125 9.6075 19.0825 8.375 19.125 C4.21310124 19.26851375 2.37189382 18.45729794 -2 17 C-2 12.05 -2 7.1 -2 2 C-1.34 2 -0.68 2 0 2 C0 1.34 0 0.68 0 0 Z " fill="#6EE1AB" transform="translate(29,52)"/>
<path d="M0 0 C0.84175781 -0.00257812 1.68351562 -0.00515625 2.55078125 -0.0078125 C3.87142578 0.00378906 3.87142578 0.00378906 5.21875 0.015625 C6.09917969 0.00789063 6.97960937 0.00015625 7.88671875 -0.0078125 C8.72847656 -0.00523438 9.57023437 -0.00265625 10.4375 0 C11.59668945 0.00338379 11.59668945 0.00338379 12.77929688 0.00683594 C14.71875 0.265625 14.71875 0.265625 16.71875 2.265625 C16.99658543 6.27756866 16.8043995 10.24009862 16.71875 14.265625 C12.09875 14.265625 7.47875 14.265625 2.71875 14.265625 C2.71875 15.255625 2.71875 16.245625 2.71875 17.265625 C3.95625 17.018125 3.95625 17.018125 5.21875 16.765625 C9.13147317 16.20666455 12.77058173 16.19755313 16.71875 16.265625 C15.84375 21.015625 15.84375 21.015625 14.71875 23.265625 C11.59376937 23.29458476 8.4688231 23.31240983 5.34375 23.328125 C4.45429687 23.33650391 3.56484375 23.34488281 2.6484375 23.35351562 C1.37226562 23.35834961 1.37226562 23.35834961 0.0703125 23.36328125 C-1.10797119 23.37113647 -1.10797119 23.37113647 -2.31005859 23.37915039 C-4.28125 23.265625 -4.28125 23.265625 -6.28125 22.265625 C-6.33915353 18.97403184 -6.37481261 15.68256897 -6.40625 12.390625 C-6.42300781 11.45347656 -6.43976563 10.51632813 -6.45703125 9.55078125 C-6.46669922 8.20693359 -6.46669922 8.20693359 -6.4765625 6.8359375 C-6.48703613 6.00852051 -6.49750977 5.18110352 -6.50830078 4.32861328 C-6.04877532 0.15335508 -3.60739677 0.01053035 0 0 Z " fill="#D4DCE1" transform="translate(99.28125,60.734375)"/>
<path d="M0 0 C3.12498063 -0.02895976 6.2499269 -0.04678483 9.375 -0.0625 C10.70917969 -0.07506836 10.70917969 -0.07506836 12.0703125 -0.08789062 C13.34648438 -0.09272461 13.34648438 -0.09272461 14.6484375 -0.09765625 C15.43395996 -0.10289307 16.21948242 -0.10812988 17.02880859 -0.11352539 C19 0 19 0 21 1 C21 8.26 21 15.52 21 23 C17.74125 23.020625 14.4825 23.04125 11.125 23.0625 C9.58610107 23.07615601 9.58610107 23.07615601 8.01611328 23.09008789 C6.80544189 23.09383423 6.80544189 23.09383423 5.5703125 23.09765625 C4.32918701 23.10551147 4.32918701 23.10551147 3.06298828 23.11352539 C1 23 1 23 -1 22 C-1.02686553 20.02090602 -1.04633375 18.04171029 -1.0625 16.0625 C-1.07410156 14.96035156 -1.08570313 13.85820313 -1.09765625 12.72265625 C-1 10 -1 10 0 9 C2.18639453 8.92741054 4.37500389 8.91626217 6.5625 8.9375 C8.35880859 8.95103516 8.35880859 8.95103516 10.19140625 8.96484375 C11.11824219 8.97644531 12.04507813 8.98804687 13 9 C13 7.68 13 6.36 13 5 C12.175 5.165 11.35 5.33 10.5 5.5 C6.58727683 6.05896045 2.94816827 6.06807187 -1 6 C-0.67 4.02 -0.34 2.04 0 0 Z " fill="#72E8AE" transform="translate(52,61)"/>
<path d="M0 0 C6.27 0 12.54 0 19 0 C19 2.64 19 5.28 19 8 C15.37 8 11.74 8 8 8 C8 9.32 8 10.64 8 12 C10.31 12 12.62 12 15 12 C15 14.31 15 16.62 15 19 C12.69 19 10.38 19 8 19 C8 23.29 8 27.58 8 32 C5.36 32 2.72 32 0 32 C0 21.44 0 10.88 0 0 Z " fill="#D5DDE1" transform="translate(74,52)"/>
<path d="M0 0 C0.33 0.99 0.66 1.98 1 3 C5.62 2.67 10.24 2.34 15 2 C15 3.32 15 4.64 15 6 C8.565 6.495 8.565 6.495 2 7 C1.67 10.63 1.34 14.26 1 18 C0.34 18 -0.32 18 -1 18 C-1.02707139 15.75006641 -1.04642829 13.50003905 -1.0625 11.25 C-1.07410156 9.99703125 -1.08570313 8.7440625 -1.09765625 7.453125 C-1.02021027 4.71463499 -0.82780815 2.58119707 0 0 Z " fill="#336B67" transform="translate(50,64)"/>
<path d="M0 0 C3.96 0.33 7.92 0.66 12 1 C12 2.98 12 4.96 12 7 C10.02 7 8.04 7 6 7 C6 5.68 6 4.36 6 3 C3.69 3 1.38 3 -1 3 C-0.67 2.01 -0.34 1.02 0 0 Z " fill="#234A55" transform="translate(29,70)"/>
<path d="M0 0 C1.98 0 3.96 0 6 0 C6 0.66 6 1.32 6 2 C7.98 2 9.96 2 12 2 C10.09598862 3.90401138 8.66574314 4.93520439 5.953125 5.19921875 C3.96766727 5.1886578 1.9830086 5.09915043 0 5 C0 3.35 0 1.7 0 0 Z " fill="#265058" transform="translate(36,60)"/>
<path d="M0 0 C3.96 0 7.92 0 12 0 C12 0.66 12 1.32 12 2 C6.06 2.495 6.06 2.495 0 3 C0 2.01 0 1.02 0 0 Z " fill="#435A6B" transform="translate(102,75)"/>
<path d="M0 0 C1.98 0 3.96 0 6 0 C6 1.32 6 2.64 6 4 C4.02 4 2.04 4 0 4 C0 2.68 0 1.36 0 0 Z " fill="#2B595D" transform="translate(59,74)"/>
<path d="M0 0 C1.65 0 3.3 0 5 0 C5 1.32 5 2.64 5 4 C3.35 4 1.7 4 0 4 C0 2.68 0 1.36 0 0 Z " fill="#294456" transform="translate(102,67)"/>
</svg>
