<?xml version="1.0" encoding="UTF-8"?>
<svg version="1.1" xmlns="http://www.w3.org/2000/svg" width="500" height="500">
<path d="M0 0 C165 0 330 0 500 0 C500 165 500 330 500 500 C335 500 170 500 0 500 C0 335 0 170 0 0 Z " fill="#14E0FE" transform="translate(0,0)"/>
<path d="M0 0 C9.59673072 -0.38949527 17.49721905 1.99614784 26.40234375 5.234375 C27.24362444 11.17121761 27.64426659 16.99002162 27.71484375 22.984375 C27.75834961 24.23927734 27.75834961 24.23927734 27.80273438 25.51953125 C27.86534086 31.55864948 27.86534086 31.55864948 25.66796875 34.765625 C23.18805285 36.37329462 21.76955996 36.81061918 18.83984375 36.984375 C17.97488281 37.03980469 17.10992187 37.09523437 16.21875 37.15234375 C11.60837604 37.28662649 7.01466009 37.29350726 2.40234375 37.234375 C1.74234375 33.604375 1.08234375 29.974375 0.40234375 26.234375 C-5.86765625 26.564375 -12.13765625 26.894375 -18.59765625 27.234375 C-18.92765625 32.514375 -19.25765625 37.794375 -19.59765625 43.234375 C-17.73882812 43.35554688 -15.88 43.47671875 -13.96484375 43.6015625 C-7.63342028 44.02106314 -1.30837696 44.50622164 5.01757812 45.00048828 C7.74131029 45.1886977 10.43952726 45.30555824 13.16796875 45.35546875 C16.69961056 45.54275279 19.14732129 45.88302421 22.40234375 47.234375 C29.76953436 56.26461719 29.4252061 68.11845694 29.34936523 79.1472168 C29.33979483 82.06177273 29.41073354 84.96740998 29.48632812 87.88085938 C29.49314157 89.75519697 29.49526015 91.62955879 29.4921875 93.50390625 C29.53363136 94.79165703 29.53363136 94.79165703 29.57591248 96.10542297 C29.46015189 101.17490072 28.27378739 104.0824675 24.76416016 107.79370117 C18.56070048 112.67316207 12.08359101 112.25097999 4.5234375 112.015625 C3.10143745 112.00067493 1.67939574 111.98930098 0.25733948 111.98132324 C-3.45749829 111.95100316 -7.16977104 111.87262874 -10.88360596 111.78369141 C-14.68442086 111.70135519 -18.48565675 111.66521105 -22.28710938 111.625 C-29.72511867 111.53960232 -37.16102598 111.40335558 -44.59765625 111.234375 C-45.43322023 109.65669441 -46.25816971 108.07338924 -47.07861328 106.48779297 C-47.76940475 105.16616653 -47.76940475 105.16616653 -48.47415161 103.81784058 C-50.151986 99.9597102 -49.94274292 97.53887286 -49.47265625 93.359375 C-49.34632812 92.10382813 -49.22 90.84828125 -49.08984375 89.5546875 C-48.92742187 88.12898438 -48.765 86.70328125 -48.59765625 85.234375 C-48.26765625 81.274375 -47.93765625 77.314375 -47.59765625 73.234375 C-39.34765625 73.234375 -31.09765625 73.234375 -22.59765625 73.234375 C-22.10265625 79.174375 -22.10265625 79.174375 -21.59765625 85.234375 C-14.33765625 85.234375 -7.07765625 85.234375 0.40234375 85.234375 C0.40234375 79.624375 0.40234375 74.014375 0.40234375 68.234375 C-2.35496094 67.96882813 -5.11226562 67.70328125 -7.953125 67.4296875 C-10.63079576 67.16666142 -13.30820174 66.90108105 -15.9855957 66.63525391 C-17.84275613 66.45224254 -19.7001793 66.27187698 -21.55786133 66.09423828 C-24.23202241 65.83805694 -26.90508606 65.57229396 -29.578125 65.3046875 C-30.81903145 65.18892868 -30.81903145 65.18892868 -32.08500671 65.0708313 C-37.50118828 64.51610505 -41.61745511 63.93135664 -45.87475586 60.28295898 C-48.43879824 55.74601733 -48.1893732 51.58724013 -48.1640625 46.45703125 C-48.17026108 45.41292587 -48.17645966 44.3688205 -48.18284607 43.29307556 C-48.18993937 41.0883782 -48.18677885 38.88362723 -48.17407227 36.67895508 C-48.16021707 33.31165609 -48.19427445 29.94714209 -48.23242188 26.58007812 C-48.23337321 24.43489516 -48.23151347 22.28970872 -48.2265625 20.14453125 C-48.23982071 19.14124283 -48.25307892 18.13795441 -48.26673889 17.10426331 C-48.2075416 12.64358474 -48.12267282 9.24614869 -45.35229492 5.61425781 C-42.56278546 3.20424822 -41.48781457 2.4560574 -37.89453125 2.24609375 C-36.56035156 2.14723877 -36.56035156 2.14723877 -35.19921875 2.04638672 C-34.25820312 2.00529785 -33.3171875 1.96420898 -32.34765625 1.921875 C-31.37054688 1.85758301 -30.3934375 1.79329102 -29.38671875 1.72705078 C-27.39853544 1.5995449 -25.40953162 1.48422472 -23.41992188 1.38134766 C-20.89796313 1.25001382 -18.38187844 1.08587867 -15.86328125 0.90234375 C-10.57870139 0.52618958 -5.28626702 0.34438222 0 0 Z " fill="#50EA38" transform="translate(142.59765625,179.765625)"/>
<path d="M0 0 C2.28254315 -0.05764634 4.56509468 -0.1149625 6.84765625 -0.171875 C7.87149414 -0.21070801 8.89533203 -0.24954102 9.95019531 -0.28955078 C10.91022461 -0.29970215 11.87025391 -0.30985352 12.859375 -0.3203125 C13.67237061 -0.34013184 14.48536621 -0.35995117 15.32299805 -0.38037109 C18.16015625 0.203125 18.16015625 0.203125 27.16015625 5.203125 C27.16015625 30.283125 27.16015625 55.363125 27.16015625 81.203125 C20.89015625 81.203125 14.62015625 81.203125 8.16015625 81.203125 C7.17015625 80.213125 6.18015625 79.223125 5.16015625 78.203125 C4.50015625 79.193125 3.84015625 80.183125 3.16015625 81.203125 C1.27856445 81.61772156 1.27856445 81.61772156 -1.0390625 81.6706543 C-1.90756836 81.69624924 -2.77607422 81.72184418 -3.67089844 81.74821472 C-5.08483887 81.76263359 -5.08483887 81.76263359 -6.52734375 81.77734375 C-7.98575684 81.79943657 -7.98575684 81.79943657 -9.47363281 81.82197571 C-11.5381685 81.84597065 -13.60281909 81.86136122 -15.66748047 81.86889648 C-18.80119385 81.89036027 -21.92987739 81.97040104 -25.0625 82.05273438 C-41.8537201 82.28521977 -41.8537201 82.28521977 -48.265625 77.75390625 C-51.09834022 74.83551772 -52.39526668 72.68238545 -52.6328125 68.609375 C-52.48498999 66.96819595 -52.28067058 65.33135891 -52.02734375 63.703125 C-51.83341633 61.94023785 -51.64072516 60.1772143 -51.44921875 58.4140625 C-51.33771484 57.54104492 -51.22621094 56.66802734 -51.11132812 55.76855469 C-50.85429325 53.33966757 -50.77822153 50.99535159 -50.79296875 48.5546875 C-50.78885986 47.83861328 -50.78475098 47.12253906 -50.78051758 46.38476562 C-50.77753462 44.45180843 -50.79056396 42.5188454 -50.8046875 40.5859375 C-49.56624212 36.24385774 -47.76433844 35.0195593 -44.17726135 32.45986938 C-40.25733889 30.35226973 -36.67391864 30.45503029 -32.30859375 30.6171875 C-31.43207153 30.62567719 -30.55554932 30.63416687 -29.65246582 30.64291382 C-26.88028774 30.67623416 -24.11112733 30.75146632 -21.33984375 30.828125 C-19.44926106 30.85825252 -17.55863231 30.88562342 -15.66796875 30.91015625 C-11.05744878 30.97595447 -6.44915602 31.07932116 -1.83984375 31.203125 C-1.83984375 27.903125 -1.83984375 24.603125 -1.83984375 21.203125 C-2.86464844 21.21472656 -3.88945312 21.22632813 -4.9453125 21.23828125 C-6.30598775 21.24766522 -7.66666499 21.25676477 -9.02734375 21.265625 C-9.70087891 21.27400391 -10.37441406 21.28238281 -11.06835938 21.29101562 C-14.79418506 21.30919038 -18.21864795 21.09611892 -21.83984375 20.203125 C-22.82984375 22.678125 -22.82984375 22.678125 -23.83984375 25.203125 C-32.08984375 24.873125 -40.33984375 24.543125 -48.83984375 24.203125 C-51.0630822 16.42179041 -51.01593959 13.20861519 -47.82421875 6.07421875 C-45.61257497 2.47242699 -44.52964803 1.38451617 -40.39257812 0.29663086 C-35.96111071 -0.14630141 -31.5356153 -0.03009977 -27.08984375 0.078125 C-25.47030637 0.08413047 -23.85074792 0.08588723 -22.23120117 0.08349609 C-18.97613641 0.08507927 -15.72294944 0.11349791 -12.46826172 0.16210938 C-8.30453245 0.21502037 -4.16198521 0.13207496 0 0 Z " fill="#50EA38" transform="translate(225.83984375,209.796875)"/>
<path d="M0 0 C0.67065491 0.00831345 1.34130981 0.01662689 2.0322876 0.02519226 C4.20554004 0.06189648 6.3716756 0.15622539 8.54296875 0.25390625 C10.05582584 0.29528487 11.56877261 0.33349748 13.08178711 0.36865234 C16.15007413 0.44618344 19.21625348 0.54757524 22.28320312 0.66650391 C26.40866067 0.8192945 30.52405085 0.85255398 34.65234375 0.859375 C37.03257253 0.88487689 39.41278357 0.9121163 41.79296875 0.94140625 C42.87231689 0.93810303 43.95166504 0.9347998 45.0637207 0.93139648 C51.36875786 1.09598882 56.01038834 2.10508919 61.10229492 5.97900391 C63.46096928 8.64077977 63.68418795 10.59788322 63.57421875 14.08520508 C63.50203125 14.86275146 63.42984375 15.64029785 63.35546875 16.44140625 C63.31164062 17.25955811 63.2678125 18.07770996 63.22265625 18.9206543 C63.12769042 20.65724304 63.0156035 22.39296786 62.88769531 24.12744141 C62.7278597 26.86102747 62.72171626 29.55926287 62.75390625 32.296875 C62.74716292 34.07422313 62.7393802 35.85156767 62.73046875 37.62890625 C62.75061035 38.45793457 62.77075195 39.28696289 62.79150391 40.14111328 C62.69960709 43.72802995 62.49144342 45.94075331 60.08935547 48.70483398 C56.14851704 51.88644979 53.02716178 53.57627969 47.85546875 53.25390625 C46.67984375 53.20105469 45.50421875 53.14820313 44.29296875 53.09375 C43.26042969 53.02776611 43.26042969 53.02776611 42.20703125 52.96044922 C39.15341319 52.78284328 36.09990423 52.67626697 33.04296875 52.5703125 C26.60424251 52.34584879 20.16730503 52.08938735 13.73046875 51.81640625 C13.73046875 54.78640625 13.73046875 57.75640625 13.73046875 60.81640625 C20.33046875 61.14640625 26.93046875 61.47640625 33.73046875 61.81640625 C34.39046875 60.16640625 35.05046875 58.51640625 35.73046875 56.81640625 C38.56401974 56.95868926 41.39725662 57.10514041 44.23046875 57.25390625 C45.02195312 57.29322266 45.8134375 57.33253906 46.62890625 57.37304688 C51.70432316 57.64345843 56.6942232 58.12912045 61.73046875 58.81640625 C63.30778491 64.80755672 63.01566643 69.45789679 60.35546875 75.09765625 C57.85516296 79.15295016 56.60863438 80.56806387 51.97680664 81.87792969 C47.24872964 82.38599755 42.53687714 82.22377763 37.79296875 82.06640625 C36.07792193 82.05028796 34.36281809 82.03941244 32.64770508 82.03369141 C29.2454045 82.01495793 25.84583545 81.96500644 22.44433594 81.88964844 C18.35846572 81.80879919 14.29207872 81.87326164 10.20703125 82.01171875 C9.12542725 82.04233398 8.04382324 82.07294922 6.92944336 82.10449219 C4.99495914 82.16032327 3.06075456 82.22770156 1.12719727 82.30957031 C-3.70483192 82.36575143 -6.86493029 81.75316285 -11.0690918 79.28369141 C-11.86115524 78.82435211 -12.65321869 78.36501282 -13.46928406 77.89175415 C-14.06336563 77.53688934 -14.6574472 77.18202454 -15.26953125 76.81640625 C-15.45540518 68.08876112 -15.59729299 59.3618035 -15.68402863 50.63260651 C-15.72567182 46.5785755 -15.78209154 42.52590453 -15.87304688 38.47265625 C-15.96037545 34.55623653 -16.00788705 30.6411193 -16.02854919 26.72380066 C-16.04326051 25.23418175 -16.07199088 23.74462923 -16.1153717 22.25556946 C-16.48161096 9.15579973 -16.48161096 9.15579973 -11.67504883 3.88891602 C-7.85249997 0.78821642 -4.99206618 -0.14650304 0 0 Z " fill="#EC01FE" transform="translate(339.26953125,209.18359375)"/>
<path d="M0 0 C44 1 44 1 65 2 C65 10.25 65 18.5 65 27 C53.12 27 41.24 27 29 27 C29 31.62 29 36.24 29 41 C32.05989583 40.96744792 35.11979167 40.93489583 38.1796875 40.90234375 C42.79945631 41.020436 47.4016566 41.54016566 52 42 C52 49.92 52 57.84 52 66 C40 66 40 66 29 65 C29 79.85 29 94.7 29 110 C19.34901078 110.64339928 9.67241209 111 0 111 C0 74.37 0 37.74 0 0 Z " fill="#EB02FE" transform="translate(256,180)"/>
<path d="M0 0 C0.99 0.33 1.98 0.66 3 1 C3 23.44 3 45.88 3 69 C3.99 69 4.98 69 6 69 C6 71.97 6 74.94 6 78 C2.72867393 78.08081043 -0.54066421 78.14040709 -3.8125 78.1875 C-4.74126953 78.21263672 -5.67003906 78.23777344 -6.62695312 78.26367188 C-7.51962891 78.27333984 -8.41230469 78.28300781 -9.33203125 78.29296875 C-10.15421143 78.3086792 -10.9763916 78.32438965 -11.82348633 78.34057617 C-14.47502434 77.92566921 -15.33263592 77.04470249 -17 75 C-17.66 75.99 -18.32 76.98 -19 78 C-20.8815918 78.41459656 -20.8815918 78.41459656 -23.19921875 78.4675293 C-24.06772461 78.49312424 -24.93623047 78.51871918 -25.83105469 78.54508972 C-27.24499512 78.55950859 -27.24499512 78.55950859 -28.6875 78.57421875 C-30.14591309 78.59631157 -30.14591309 78.59631157 -31.63378906 78.61885071 C-33.69832475 78.64284565 -35.76297534 78.65823622 -37.82763672 78.66577148 C-40.9613501 78.68723527 -44.09003364 78.76727604 -47.22265625 78.84960938 C-65.31266636 79.09354448 -65.31266636 79.09354448 -72.62109375 72.21411133 C-74.25269881 69.59424123 -74.30232163 68.03216656 -74 65 C-73.38592285 65.48678223 -72.7718457 65.97356445 -72.13916016 66.47509766 C-67.67241993 68.6448954 -63.67760711 68.42981611 -58.7734375 68.3984375 C-57.78880524 68.40130768 -56.80417297 68.40417786 -55.78970337 68.40713501 C-53.71363752 68.40917229 -51.63755233 68.40366601 -49.56152344 68.39111328 C-46.37912321 68.37502085 -43.19798642 68.39099132 -40.015625 68.41015625 C-37.99739303 68.40817443 -35.97916184 68.40433203 -33.9609375 68.3984375 C-33.00778656 68.40451019 -32.05463562 68.41058289 -31.07260132 68.4168396 C-30.18803253 68.40738312 -29.30346375 68.39792664 -28.39208984 68.38818359 C-27.22557388 68.38460342 -27.22557388 68.38460342 -26.03549194 68.38095093 C-23.51055049 67.90839745 -22.61461107 66.94431226 -21 65 C-20.34 66.32 -19.68 67.64 -19 69 C-12.73 69 -6.46 69 0 69 C0 46.23 0 23.46 0 0 Z " fill="#0779C2" transform="translate(253,222)"/>
<path d="M0 0 C3.85000893 5.0867823 5.26687834 7.97654401 5.1875 14.5 C5.17203125 15.81226563 5.1565625 17.12453125 5.140625 18.4765625 C4.98335506 24.50976293 4.64775661 30.53759342 4.26831055 36.56054688 C4.14172457 38.70516109 4.06590832 40.85266439 4 43 C4.33 43.33 4.66 43.66 5 44 C5.74197 48.22922899 5.99326752 50.57876729 3.49330139 54.15588379 C-2.29714619 59.86425608 -6.74275232 60.91016309 -14.77748108 60.90637207 C-16.14464914 60.86553731 -17.51179079 60.82380964 -18.87890625 60.78125 C-20.3009063 60.76629993 -21.72294801 60.75492598 -23.14500427 60.74694824 C-26.85984204 60.71662816 -30.57211479 60.63825374 -34.28594971 60.54931641 C-38.08676461 60.46698019 -41.8880005 60.43083605 -45.68945312 60.390625 C-53.12746242 60.30522732 -60.56336973 60.16898058 -68 60 C-69.32 57.03 -70.64 54.06 -72 51 C-71.22849609 51.0030162 -70.45699219 51.00603241 -69.66210938 51.00914001 C-62.36494868 51.03145375 -55.06896329 51.02007147 -47.7719574 50.97153378 C-44.0210323 50.94775346 -40.27099266 50.93666836 -36.52001953 50.95532227 C-32.89491554 50.97287102 -29.27139622 50.95612352 -25.64648438 50.91632271 C-24.26874519 50.9070811 -22.89086729 50.90986939 -21.51318359 50.92530632 C-12.26141085 51.03453436 -12.26141085 51.03453436 -4.15234375 47.07421875 C-0.07022166 42.75177619 0.12317728 38.64789852 0 32.91015625 C0.01087646 31.96563095 0.02175293 31.02110565 0.03295898 30.04795837 C0.05901093 27.05162779 0.03034042 24.05873683 0 21.0625 C0.0080961 19.02276886 0.01977719 16.9830486 0.03515625 14.94335938 C0.06492995 9.96140831 0.04565521 4.98180771 0 0 Z " fill="#0778C4" transform="translate(171,240)"/>
<path d="M0 0 C1.32 0 2.64 0 4 0 C5.83974056 7.99282245 4.74274082 12.85345869 0.640625 19.8828125 C-7.29287498 26.24369562 -25.32806152 23.29907193 -35.125 23.35009766 C-37.46201488 23.36672541 -39.79897752 23.39410367 -42.13574219 23.43212891 C-45.54127818 23.48705691 -48.94564262 23.50878454 -52.3515625 23.5234375 C-53.90346786 23.55744156 -53.90346786 23.55744156 -55.48672485 23.59213257 C-62.54750871 23.57170001 -67.18449599 22.01074345 -73 18 C-73 15.69 -73 13.38 -73 11 C-72.42878418 11.32524658 -71.85756836 11.65049316 -71.26904297 11.9855957 C-68.83782702 13.07250148 -67.33776144 13.2450885 -64.6953125 13.23046875 C-63.8199585 13.23014648 -62.94460449 13.22982422 -62.04272461 13.22949219 C-57.71506955 13.16720814 -53.38751558 13.10175711 -49.06005859 13.02685547 C-45.29099466 12.9831096 -41.52865801 13.05821125 -37.76055908 13.14228821 C-34.33956556 13.20809227 -30.91930734 13.22221899 -27.4977417 13.22891235 C-25.79875291 13.24290622 -24.09980187 13.27753212 -22.40167236 13.33334351 C-17.04202356 13.50031915 -12.17684305 13.5013183 -7 12 C-4.2392773 8.99372585 -2.80388916 6.35890113 -1.29125977 2.58105469 C-0.86514404 1.72930664 -0.43902832 0.87755859 0 0 Z " fill="#0A77C7" transform="translate(402,277)"/>
<path d="M0 0 C1.65 0 3.3 0 5 0 C5 7.92 5 15.84 5 24 C2.31875 24.020625 -0.3625 24.04125 -3.125 24.0625 C-3.95789551 24.071604 -4.79079102 24.08070801 -5.64892578 24.09008789 C-6.3242334 24.09258545 -6.99954102 24.09508301 -7.6953125 24.09765625 C-8.7164917 24.10551147 -8.7164917 24.10551147 -9.75830078 24.11352539 C-12.5269469 23.97331406 -15.26552451 23.45574591 -18 23 C-18 37.85 -18 52.7 -18 68 C-34.875 69.125 -34.875 69.125 -40.9375 69.0625 C-42.68353516 69.04896484 -42.68353516 69.04896484 -44.46484375 69.03515625 C-45.71974609 69.01775391 -45.71974609 69.01775391 -47 69 C-47 66.03 -47 63.06 -47 60 C-38.80549448 58.84989396 -31.50719893 59 -23 59 C-23 44.15 -23 29.3 -23 14 C-15.09354937 14 -7.80080618 14.26580648 0 15 C0 10.05 0 5.1 0 0 Z " fill="#0878C6" transform="translate(308,231)"/>
<path d="M0 0 C1.32 0.33 2.64 0.66 4 1 C4.90289264 7.09452535 5.19415126 13.15959838 5.3125 19.3125 C5.34214844 20.10124512 5.37179688 20.88999023 5.40234375 21.70263672 C5.43863513 25.24180237 5.35488792 27.39876701 3.53125 30.48828125 C-0.19093667 32.71125384 -3.5378122 32.76299945 -7.8125 32.875 C-9.11102905 32.92503174 -9.11102905 32.92503174 -10.43579102 32.97607422 C-22.55022898 33.28866315 -35.12587814 32.50744752 -47 30 C-47.02725341 28.2709226 -47.04650987 26.54171824 -47.0625 24.8125 C-47.07410156 23.84957031 -47.08570312 22.88664062 -47.09765625 21.89453125 C-47.00486622 19.14423487 -46.62111685 16.67520409 -46 14 C-41.64667264 13.15976812 -37.55557481 12.89229005 -33.125 12.9375 C-31.97257813 12.94652344 -30.82015625 12.95554688 -29.6328125 12.96484375 C-28.76398438 12.97644531 -27.89515625 12.98804688 -27 13 C-25.56331706 16.8610854 -24.88814792 19.896427 -25 24 C-21.56052854 23.75122898 -18.12416852 23.4722077 -14.6875 23.1875 C-13.71103516 23.11724609 -12.73457031 23.04699219 -11.72851562 22.97460938 C-10.79072266 22.89404297 -9.85292969 22.81347656 -8.88671875 22.73046875 C-8.02264404 22.66239014 -7.15856934 22.59431152 -6.26831055 22.52416992 C-3.55894549 21.89807943 -2.60122509 21.26160295 -1 19 C-0.49945249 16.88384156 -0.49945249 16.88384156 -0.48828125 14.55078125 C-0.45283203 13.70322266 -0.41738281 12.85566406 -0.38085938 11.98242188 C-0.35830078 11.10134766 -0.33574219 10.22027344 -0.3125 9.3125 C-0.27833984 8.41982422 -0.24417969 7.52714844 -0.20898438 6.60742188 C-0.12654352 4.40507329 -0.05738449 2.20312062 0 0 Z " fill="#087AC0" transform="translate(170,193)"/>
<path d="M0 0 C0.33 0 0.66 0 1 0 C1.0825 0.928125 1.165 1.85625 1.25 2.8125 C1.4975 3.864375 1.745 4.91625 2 6 C3.01707031 6.59748047 3.01707031 6.59748047 4.0546875 7.20703125 C6 9 6 9 6.2421875 12.4921875 C6.14221537 13.95483055 6.0180877 15.41594379 5.875 16.875 C5.7819458 18.04385742 5.7819458 18.04385742 5.68701172 19.23632812 C5.54884289 20.92365247 5.40080256 22.61019054 5.24414062 24.29589844 C4.98869714 27.12519044 4.78085808 29.95553609 4.578125 32.7890625 C4.42885275 34.6928479 4.27784551 36.59649815 4.125 38.5 C4.05909668 39.41378418 3.99319336 40.32756836 3.92529297 41.26904297 C3.84939941 42.11869629 3.77350586 42.96834961 3.6953125 43.84375 C3.63359863 44.59849609 3.57188477 45.35324219 3.50830078 46.13085938 C3 48 3 48 0 50 C-1.92553711 50.21289062 -1.92553711 50.21289062 -4.08984375 50.15625 C-4.88503418 50.13820313 -5.68022461 50.12015625 -6.49951172 50.1015625 C-10.52340942 49.93812358 -14.54268938 49.74482797 -18.5625 49.5 C-19.38041016 49.45230469 -20.19832031 49.40460938 -21.04101562 49.35546875 C-23.0274809 49.23930119 -25.01376186 49.1199885 -27 49 C-27.66 50.32 -28.32 51.64 -29 53 C-31.39591038 53.02712351 -33.79150957 53.0468982 -36.1875 53.0625 C-36.86103516 53.07087891 -37.53457031 53.07925781 -38.22851562 53.08789062 C-41.95434131 53.10606538 -45.3788042 52.89299392 -49 52 C-49 49.03 -49 46.06 -49 43 C-47.82493896 43.02618408 -46.64987793 43.05236816 -45.43920898 43.0793457 C-41.0578941 43.17020201 -36.67666161 43.22737741 -32.29467773 43.2746582 C-30.40228243 43.29972197 -28.50998317 43.33378253 -26.61791992 43.37719727 C-23.88956957 43.4382101 -21.1625045 43.46629069 -18.43359375 43.48828125 C-17.59477158 43.51408768 -16.7559494 43.5398941 -15.89170837 43.56648254 C-10.8789668 43.56884801 -7.24290867 42.87768595 -3.30015564 39.63948059 C-0.7997404 36.48648711 -0.91572218 33.09121967 -0.87890625 29.19921875 C-0.84441879 28.36284378 -0.80993134 27.52646881 -0.7743988 26.66474915 C-0.67201539 24.00565424 -0.6166284 21.34797113 -0.5625 18.6875 C-0.50114704 16.87944943 -0.43672758 15.07150014 -0.36914062 13.26367188 C-0.21055025 8.84283269 -0.09407227 4.42266346 0 0 Z " fill="#0F74C8" transform="translate(402,218)"/>
<path d="M0 0 C0.60247559 0.08040527 1.20495117 0.16081055 1.82568359 0.24365234 C13.03851533 1.73543353 24.24644037 3.21312354 35.50146484 4.35302734 C38.49654651 4.6664088 41.13124551 5.0437485 44 6 C44 11.61 44 17.22 44 23 C36.74 23 29.48 23 22 23 C21.67 19.04 21.34 15.08 21 11 C19.2365625 11.0309375 19.2365625 11.0309375 17.4375 11.0625 C15.95826945 11.04684677 14.47908497 11.02599446 13 11 C11.80375 10.979375 10.6075 10.95875 9.375 10.9375 C4.79663623 9.66573229 2.41284112 7.04791661 0 3 C0 2.01 0 1.02 0 0 Z " fill="#0778C3" transform="translate(99,242)"/>
<path d="M0 0 C1.65 0 3.3 0 5 0 C5.02900455 3.6041498 5.04680018 7.20826962 5.0625 10.8125 C5.07087891 11.83666016 5.07925781 12.86082031 5.08789062 13.91601562 C5.09111328 14.89892578 5.09433594 15.88183594 5.09765625 16.89453125 C5.10289307 17.80050049 5.10812988 18.70646973 5.11352539 19.63989258 C5 22 5 22 4 25 C-7.55 25 -19.1 25 -31 25 C-31 26.65 -31 28.3 -31 30 C-32.65 30 -34.3 30 -36 30 C-36 25.38 -36 20.76 -36 16 C-24.12 16 -12.24 16 0 16 C0 10.72 0 5.44 0 0 Z " fill="#0777C5" transform="translate(321,191)"/>
<path d="M0 0 C6.6 0.33 13.2 0.66 20 1 C20 4.3 20 7.6 20 11 C5.81 11.33 -8.38 11.66 -23 12 C-23 9.36 -23 6.72 -23 4 C-16.07 4 -9.14 4 -2 4 C-1.34 2.68 -0.68 1.36 0 0 Z " fill="#097FC3" transform="translate(204,230)"/>
<path d="M0 0 C1.32 0.33 2.64 0.66 4 1 C4.90289264 7.09452535 5.19415126 13.15959838 5.3125 19.3125 C5.34214844 20.10124512 5.37179688 20.88999023 5.40234375 21.70263672 C5.43806955 25.18664664 5.32526271 27.41120999 3.62109375 30.49609375 C-0.49414664 32.85729725 -4.58237883 32.67808987 -9.25 32.75 C-10.65378906 32.79447266 -10.65378906 32.79447266 -12.0859375 32.83984375 C-14.39016382 32.91038129 -16.69508655 32.95747392 -19 33 C-19.99 30.03 -20.98 27.06 -22 24 C-20.73542969 23.89042969 -19.47085938 23.78085938 -18.16796875 23.66796875 C-16.50774514 23.50851225 -14.84759233 23.34831749 -13.1875 23.1875 C-12.35412109 23.11724609 -11.52074219 23.04699219 -10.66210938 22.97460938 C-9.85966797 22.89404297 -9.05722656 22.81347656 -8.23046875 22.73046875 C-7.49207764 22.66239014 -6.75368652 22.59431152 -5.99291992 22.52416992 C-3.48015288 21.86327186 -2.53052709 21.09179896 -1 19 C-0.49945249 16.88384156 -0.49945249 16.88384156 -0.48828125 14.55078125 C-0.45283203 13.70322266 -0.41738281 12.85566406 -0.38085938 11.98242188 C-0.35830078 11.10134766 -0.33574219 10.22027344 -0.3125 9.3125 C-0.27833984 8.41982422 -0.24417969 7.52714844 -0.20898438 6.60742188 C-0.12654352 4.40507329 -0.05738449 2.20312062 0 0 Z " fill="#0778C2" transform="translate(170,193)"/>
<path d="M0 0 C3.14588944 -0.02683697 6.29155271 -0.04675902 9.4375 -0.0625 C10.33533203 -0.07087891 11.23316406 -0.07925781 12.15820312 -0.08789062 C13.01220703 -0.09111328 13.86621094 -0.09433594 14.74609375 -0.09765625 C15.93223267 -0.10551147 15.93223267 -0.10551147 17.14233398 -0.11352539 C19 0 19 0 20 1 C20.07258946 3.18639453 20.08373783 5.37500389 20.0625 7.5625 C20.05347656 8.76003906 20.04445313 9.95757812 20.03515625 11.19140625 C20.02355469 12.11824219 20.01195312 13.04507813 20 14 C13.23405981 14.11381955 6.71162938 13.88021369 0 13 C0 8.71 0 4.42 0 0 Z " fill="#0C73C6" transform="translate(353,232)"/>
<path d="M0 0 C6.6 0 13.2 0 20 0 C20 3.96 20 7.92 20 12 C16.85411056 12.02683697 13.70844729 12.04675902 10.5625 12.0625 C9.21575195 12.07506836 9.21575195 12.07506836 7.84179688 12.08789062 C6.56079102 12.09272461 6.56079102 12.09272461 5.25390625 12.09765625 C4.46314697 12.10289307 3.6723877 12.10812988 2.85766602 12.11352539 C1 12 1 12 0 11 C-0.14310287 7.3308423 -0.04221662 3.67284559 0 0 Z " fill="#087BC2" transform="translate(204,257)"/>
<path d="M0 0 C2.52108103 0.14224587 5.04180403 0.28870121 7.5625 0.4375 C8.26697266 0.47681641 8.97144531 0.51613281 9.69726562 0.55664062 C14.1798541 0.82518279 18.56293497 1.30616197 23 2 C23 4.97 23 7.94 23 11 C15.74 11 8.48 11 1 11 C0.67 7.37 0.34 3.74 0 0 Z " fill="#14DBF9" transform="translate(120,254)"/>
<path d="M0 0 C0 0.66 0 1.32 0 2 C1.32 2.33 2.64 2.66 4 3 C4.33 5.31 4.66 7.62 5 10 C-2.42686315 10.10331031 -9.63512596 9.99862699 -17 9 C-16.67 6.36 -16.34 3.72 -16 1 C-10.63904667 -0.12862175 -5.44693314 -0.09688221 0 0 Z " fill="#14DDFA" transform="translate(145,215)"/>
<path d="M0 0 C4.95 0 9.9 0 15 0 C15 1.65 15 3.3 15 5 C13.25008666 5.02715383 11.50005055 5.04646551 9.75 5.0625 C8.28820312 5.07990234 8.28820312 5.07990234 6.796875 5.09765625 C4.34241322 5.01195577 2.33831086 4.70706066 0 4 C0 2.68 0 1.36 0 0 Z " fill="#18DAFE" transform="translate(358,241)"/>
<path d="M0 0 C4.95 0 9.9 0 15 0 C15 0.99 15 1.98 15 3 C13.25008666 3.02715383 11.50005055 3.04646551 9.75 3.0625 C8.28820312 3.07990234 8.28820312 3.07990234 6.796875 3.09765625 C4.34241322 3.01195577 2.33831086 2.70706066 0 2 C0 1.34 0 0.68 0 0 Z " fill="#14E1FE" transform="translate(209,266)"/>
</svg>
